<svg width="64" height="64" viewBox="0 0 64 64" fill="none" xmlns="http://www.w3.org/2000/svg">
<path d="M26.5993 31.2089H21.8098C21.8098 28.2034 22.8635 25.4136 24.7554 23.3541C26.7311 21.1988 29.4731 20.0253 32.4665 20.0253C35.7473 20.0253 38.8126 21.7256 40.6207 24.3838L45.4222 22.1447C43.3268 18.7322 39.4832 15.4394 32.4665 15.4394V10.6498C44.0811 10.6498 48.9904 17.9539 50.8942 22.3123L51.8282 24.4556L38.0942 30.8257L37.256 28.2633C36.6933 26.5391 34.8732 24.8029 32.4665 24.8029C29.0659 24.8029 26.5993 27.497 26.5993 31.2089Z" fill="#09F7A7"/>
<path d="M6.14805 31.1849H1.35852C1.35852 23.0188 4.54355 15.3316 10.3149 9.5602C16.0863 3.78882 23.7735 0.60379 31.9396 0.60379V5.39332C17.7147 5.38134 6.14805 16.96 6.14805 31.1849Z" fill="#FD9FF5"/>
<path d="M62.5208 31.1849H57.7312C57.7312 16.96 46.1645 5.39332 31.9396 5.39332V0.60379C40.1058 0.60379 47.793 3.78882 53.5643 9.5602C59.3357 15.3316 62.5208 23.0068 62.5208 31.1849Z" fill="#09F7A7"/>
<path d="M31.9396 61.766V56.9765C46.1645 56.9765 57.7312 45.4098 57.7312 31.1849H62.5208C62.5208 39.351 59.3357 47.0382 53.5643 52.8096C47.793 58.581 40.1058 61.766 31.9396 61.766Z" fill="#39C6E6"/>
<path d="M9.369 63.3107C7.47714 63.3107 5.72896 63.0113 4.81895 61.6224C4.19631 60.6764 4.17237 59.5868 4.75908 58.3894L4.78303 58.3415C4.81895 58.2697 4.86685 58.1619 4.95066 58.0182C6.32765 55.3481 6.89042 53.0132 6.60305 51.0615C6.20791 48.3434 5.56133 46.7389 5.32185 46.224C2.72353 41.65 1.35852 36.4414 1.35852 31.161H6.14805C6.14805 35.6512 7.32148 40.0695 9.52466 43.937L9.57255 44.0089L9.60848 44.0927C9.96769 44.8351 10.8418 46.9425 11.3447 50.367C11.7039 52.8456 11.2609 55.5636 10.0156 58.4852C10.0515 58.4852 10.0874 58.4852 10.1233 58.4852C11.9194 58.4134 14.9488 56.9526 18.2416 54.5937L19.4031 53.7556L20.6843 54.3782C24.2046 56.0905 27.9883 56.9526 31.9277 56.9526V61.7421C27.7368 61.7421 23.6897 60.9159 19.882 59.2755C17.0562 61.1793 13.4161 63.143 10.3149 63.2628C10.0036 63.3107 9.69229 63.3107 9.369 63.3107Z" fill="#F9CD00"/>
<path d="M32.4665 51.7799C26.5874 51.7799 21.1992 49.7563 17.2718 46.1043C13.2246 42.3325 11.0095 37.0521 11.0095 31.2089H15.799C15.799 40.3569 22.8156 46.9903 32.4785 46.9903V51.7799H32.4665Z" fill="#F9CD00"/>
<path d="M15.799 31.2089H11.0095C11.0095 25.3537 13.2366 20.0612 17.2837 16.3015C21.1992 12.6494 26.5994 10.6378 32.4785 10.6378V15.4274C22.648 15.4274 15.799 21.9172 15.799 31.2089Z" fill="#FD9FF5"/>
<path d="M32.4665 51.7799V46.9903C39.4472 46.9903 43.2908 43.6736 45.4102 40.2371L40.6207 38.0339C38.8246 40.6921 35.7473 42.3924 32.4665 42.3924C29.4731 42.3924 26.7311 41.207 24.7554 39.0637C22.8515 36.9922 21.8098 34.2023 21.8098 31.2089H26.5993C26.5993 34.9207 29.0659 37.6149 32.4785 37.6149C34.8732 37.6149 36.7052 35.8787 37.268 34.1544L38.1062 31.604L51.8521 37.9262L50.9062 40.0815C49.9363 42.2966 48.0923 45.4457 44.8355 47.9243C41.4349 50.4747 37.28 51.7799 32.4665 51.7799Z" fill="#39C6E6"/>
</svg>
